<?xml version="1.0" encoding="UTF-8" standalone="no"?>
<!-- Generator: Adobe Illustrator 16.0.0, SVG Export Plug-In . SVG Version: 6.00 Build 0)  -->

<svg
   xmlns:dc="http://purl.org/dc/elements/1.1/"
   xmlns:cc="http://creativecommons.org/ns#"
   xmlns:rdf="http://www.w3.org/1999/02/22-rdf-syntax-ns#"
   xmlns:svg="http://www.w3.org/2000/svg"
   xmlns="http://www.w3.org/2000/svg"
   xmlns:sodipodi="http://sodipodi.sourceforge.net/DTD/sodipodi-0.dtd"
   xmlns:inkscape="http://www.inkscape.org/namespaces/inkscape"
   version="1.1"
   id="Layer_1"
   x="0px"
   y="0px"
   width="40"
   height="40"
   viewBox="0 0 40 40"
   enable-background="new 0 0 512 512"
   xml:space="preserve"
   sodipodi:docname="facebook.svg"
   inkscape:version="0.92.2 (5c3e80d, 2017-08-06)"><metadata
     id="metadata13573"><rdf:RDF><cc:Work
         rdf:about=""><dc:format>image/svg+xml</dc:format><dc:type
           rdf:resource="http://purl.org/dc/dcmitype/StillImage" /><dc:title /></cc:Work></rdf:RDF></metadata><defs
     id="defs13571" /><sodipodi:namedview
     pagecolor="#ffffff"
     bordercolor="#666666"
     borderopacity="1"
     objecttolerance="10"
     gridtolerance="10"
     guidetolerance="10"
     inkscape:pageopacity="0"
     inkscape:pageshadow="2"
     inkscape:window-width="1366"
     inkscape:window-height="705"
     id="namedview13569"
     showgrid="false"
     inkscape:zoom="14.75"
     inkscape:cx="31.609691"
     inkscape:cy="8.3758275"
     inkscape:window-x="-8"
     inkscape:window-y="-8"
     inkscape:window-maximized="1"
     inkscape:current-layer="Layer_1"
     inkscape:pagecheckerboard="true" /><path
     d="M 26.251962,11.072715 H 14.42271 c -1.537263,0 -2.891444,1.116889 -2.891444,2.65415 v 11.829256 c 0,1.537263 1.354181,2.912556 2.891444,2.912556 h 7.324292 c -0.01372,-2.280054 0.0032,-4.819103 -0.0077,-7.025392 -0.467158,-0.0046 -0.934737,-0.02888 -1.401894,-0.03607 0.0017,-0.779736 7.27e-4,-1.575645 9.67e-4,-2.355253 0.466864,-0.0057 0.93402,-0.0069 1.400882,-0.0113 0.01427,-0.758202 -0.01428,-1.521091 0.01494,-2.278616 0.04659,-0.599784 0.275251,-1.206023 0.723704,-1.620402 0.542949,-0.51677 1.314916,-0.692335 2.043055,-0.714078 0.769856,-0.0069 1.539796,-0.0032 2.31003,-0.0029 0.0031,0.812375 0.0031,1.624834 -3.38e-4,2.437208 -0.497768,-8.4e-4 -0.995833,9.67e-4 -1.493602,-0.0011 -0.315323,-0.01971 -0.639472,0.219476 -0.696853,0.532392 -0.0074,0.543623 -0.0028,1.087544 -0.0024,1.630999 0.729828,0.0031 1.459953,-8.42e-4 2.189779,0.0018 -0.05335,0.786578 -0.151201,1.569352 -0.265374,2.349171 -0.644831,0.0057 -1.290086,0.06392 -1.934579,0.06765 -0.0054,2.205571 0.0017,4.745679 -0.0039,7.025731 h 1.628295 c 1.537262,0 2.675262,-1.375295 2.675262,-2.912557 V 13.726881 c 4.3e-5,-1.537262 -1.137956,-2.654151 -2.675218,-2.654151 z"
     id="path13566"
     style="fill:#0c0c0c;fill-opacity:1;stroke:none;stroke-width:0.845;stroke-miterlimit:4;stroke-dasharray:none"
     inkscape:connector-curvature="0" /><path
     style="fill:#000000;fill-opacity:1;fill-rule:evenodd;stroke:#000000;stroke-width:0.845;stroke-opacity:1;stroke-miterlimit:4;stroke-dasharray:none"
     d="M 20.33355,4.943653 A 14.853423,14.853425 0 0 0 5.3525125,19.534888 14.853423,14.853425 0 0 0 19.811859,34.644883 14.853423,14.853425 0 0 0 35.047878,20.31889 l 0.0087,-0.523156 A 14.853423,14.853425 0 0 0 20.33355,4.943653 Z m -0.0176,2.0340099 A 12.81864,12.818642 0 0 1 33.022655,19.795734 l -0.0087,0.449885 A 12.81864,12.818642 0 0 1 19.866075,32.610872 12.81864,12.818642 0 0 1 7.3865182,19.571522 12.81864,12.818642 0 0 1 20.315959,6.9776629 Z"
     id="path14118"
     inkscape:connector-curvature="0" /></svg>