<?xml version="1.0" encoding="UTF-8" standalone="no"?>
<!-- Generator: Adobe Illustrator 16.0.0, SVG Export Plug-In . SVG Version: 6.00 Build 0)  -->

<svg
   xmlns:dc="http://purl.org/dc/elements/1.1/"
   xmlns:cc="http://creativecommons.org/ns#"
   xmlns:rdf="http://www.w3.org/1999/02/22-rdf-syntax-ns#"
   xmlns:svg="http://www.w3.org/2000/svg"
   xmlns="http://www.w3.org/2000/svg"
   xmlns:sodipodi="http://sodipodi.sourceforge.net/DTD/sodipodi-0.dtd"
   xmlns:inkscape="http://www.inkscape.org/namespaces/inkscape"
   version="1.1"
   id="Layer_1"
   x="0px"
   y="0px"
   width="40"
   height="40"
   viewBox="0 0 40 40"
   enable-background="new 0 0 512 512"
   xml:space="preserve"
   sodipodi:docname="twitter.svg"
   inkscape:version="0.92.2 (5c3e80d, 2017-08-06)"><metadata
     id="metadata15265"><rdf:RDF><cc:Work
         rdf:about=""><dc:format>image/svg+xml</dc:format><dc:type
           rdf:resource="http://purl.org/dc/dcmitype/StillImage" /><dc:title></dc:title></cc:Work></rdf:RDF></metadata><defs
     id="defs15263" /><sodipodi:namedview
     pagecolor="#ffffff"
     bordercolor="#666666"
     borderopacity="1"
     objecttolerance="10"
     gridtolerance="10"
     guidetolerance="10"
     inkscape:pageopacity="0"
     inkscape:pageshadow="2"
     inkscape:window-width="1366"
     inkscape:window-height="705"
     id="namedview15261"
     showgrid="false"
     inkscape:zoom="20.85965"
     inkscape:cx="12.044874"
     inkscape:cy="19.285377"
     inkscape:window-x="-8"
     inkscape:window-y="-8"
     inkscape:window-maximized="1"
     inkscape:current-layer="Layer_1" /><path
     d="m 28.943,13.89027 c 0,-1.576676 -1.256463,-2.83322 -2.833238,-2.83322 H 13.976464 c -1.576689,0 -2.876549,1.256544 -2.876549,2.83322 v 12.133217 c 0,1.576768 1.29986,2.876531 2.876549,2.876531 h 12.133298 c 1.576775,0 2.833238,-1.299763 2.833238,-2.876531 z m -3.720152,6.223427 c -0.241663,0.988511 -0.817058,1.875246 -1.563393,2.558649 -1.452349,1.314878 -3.463855,1.945143 -5.407449,1.820024 -1.868458,-0.114154 -3.707164,-1.035019 -4.810834,-2.563063 0.09654,0.05629 0.177477,0.134217 0.269635,0.196749 0.85452,0.618227 1.992193,0.814758 3.008165,0.538752 0.616496,-0.159113 1.176345,-0.503933 1.62346,-0.954337 -0.286096,0.0193 -0.603633,-0.03157 -0.810951,-0.247074 -0.129279,-0.123204 -0.182631,-0.32572 -0.104892,-0.490682 0.09412,-0.208268 0.303203,-0.326715 0.500777,-0.419961 -0.648373,0.09273 -1.354951,-0.209436 -1.653822,-0.808862 0.219056,-0.261366 0.569118,-0.344994 0.894322,-0.370635 -0.378476,-0.110304 -0.767126,-0.24534 -1.054044,-0.527794 -0.228107,-0.213814 -0.376348,-0.510388 -0.420783,-0.819306 0.267905,-0.04984 0.536851,-0.110833 0.811467,-0.09931 -0.622557,-0.324074 -1.191674,-0.941087 -1.14204,-1.687156 1.180717,0.430744 2.342336,0.921854 3.451597,1.515004 0.388043,0.213077 0.710778,0.521692 1.027926,0.82593 0.30736,-0.798081 0.637197,-1.59924 1.137151,-2.299357 0.267991,-0.368295 0.584056,-0.711035 0.972273,-0.953692 -0.01514,0.120655 -0.07699,0.225983 -0.13435,0.330615 0.289908,-0.21875 0.625719,-0.388042 0.990248,-0.430743 -0.05053,0.217883 -0.257164,0.331957 -0.437417,0.431003 0.272023,-0.08043 0.537201,-0.199088 0.82403,-0.218663 0.07636,-0.0028 0.18558,5.14e-4 0.212734,0.08947 0.04114,0.110831 -0.07107,0.196793 -0.156087,0.24296 -0.312776,0.161452 -0.67453,0.185144 -0.992717,0.334295 0.654003,-0.06142 1.306876,0.192115 1.802802,0.610559 0.591896,0.487261 0.983101,1.192665 1.125804,1.942762 0.523295,0.140617 1.088904,0.03886 1.579893,-0.1699 -0.246904,0.559153 -0.875613,0.814454 -1.449924,0.864261 0.477258,0.18016 1.002416,0.210821 1.506874,0.157336 -0.399866,0.44326 -1.018658,0.615712 -1.600465,0.602153 z"
     id="path15258"
     inkscape:connector-curvature="0"
     style="fill:#060606;fill-opacity:1;stroke:none;stroke-width:0.04566807" /><path
     style="fill:#060606;fill-opacity:1;fill-rule:evenodd;stroke:#000000;stroke-width:0.84535956;stroke-opacity:1"
     d="M 20.154342,4.8158458 A 15.163164,15.163167 0 0 0 4.8609027,19.711355 15.163164,15.163167 0 0 0 19.621771,35.136442 15.163164,15.163167 0 0 0 35.175511,20.511705 l 0.0089,-0.534066 A 15.163164,15.163167 0 0 0 20.154342,4.8158458 Z m -0.01797,2.0764255 a 13.08595,13.085952 0 0 1 12.97168,13.0853677 l -0.0089,0.459267 A 13.08595,13.085952 0 0 1 19.677118,33.060015 13.08595,13.085952 0 0 1 6.937324,19.748753 13.08595,13.085952 0 0 1 20.136384,6.8922713 Z"
     id="path14118"
     inkscape:connector-curvature="0" /></svg>