<?xml version="1.0" encoding="UTF-8" standalone="no"?>
<svg
   xmlns:dc="http://purl.org/dc/elements/1.1/"
   xmlns:cc="http://creativecommons.org/ns#"
   xmlns:rdf="http://www.w3.org/1999/02/22-rdf-syntax-ns#"
   xmlns:svg="http://www.w3.org/2000/svg"
   xmlns="http://www.w3.org/2000/svg"
   xmlns:sodipodi="http://sodipodi.sourceforge.net/DTD/sodipodi-0.dtd"
   xmlns:inkscape="http://www.inkscape.org/namespaces/inkscape"
   viewBox="0 0 40 40"
   version="1.1"
   id="svg15876"
   sodipodi:docname="instagram.svg"
   width="40"
   height="40"
   inkscape:version="0.92.2 (5c3e80d, 2017-08-06)">
  <metadata
     id="metadata15882">
    <rdf:RDF>
      <cc:Work
         rdf:about="">
        <dc:format>image/svg+xml</dc:format>
        <dc:type
           rdf:resource="http://purl.org/dc/dcmitype/StillImage" />
        <dc:title></dc:title>
      </cc:Work>
    </rdf:RDF>
  </metadata>
  <defs
     id="defs15880" />
  <sodipodi:namedview
     pagecolor="#ffffff"
     bordercolor="#666666"
     borderopacity="1"
     objecttolerance="10"
     gridtolerance="10"
     guidetolerance="10"
     inkscape:pageopacity="0"
     inkscape:pageshadow="2"
     inkscape:window-width="1366"
     inkscape:window-height="705"
     id="namedview15878"
     showgrid="false"
     inkscape:zoom="10.429825"
     inkscape:cx="37.4114"
     inkscape:cy="9.409418"
     inkscape:window-x="-8"
     inkscape:window-y="-8"
     inkscape:window-maximized="1"
     inkscape:current-layer="svg15876"
     showguides="false" />
  <g
     id="g16526"
     style="fill:#060606;fill-opacity:1;stroke-width:1.03915656"
     transform="matrix(0.96232204,0,0,0.96231585,0.75102002,0.76645368)">
    <path
       id="path15870"
       d="m 19.931641,10.931641 c -2.554959,0 -2.875639,0.01084 -3.878907,0.05664 -1.001362,0.04571 -1.684814,0.204925 -2.283203,0.4375 -0.627531,0.235929 -1.196074,0.605849 -1.666015,1.083985 -0.47884,0.469748 -0.849435,1.038306 -1.085938,1.666015 -0.232387,0.59843 -0.390025,1.283788 -0.435547,2.285157 -0.04597,1.003271 -0.05664,1.323936 -0.05664,3.878906 0,2.554971 0.01066,2.873681 0.05664,3.876953 0.04571,1.001367 0.204927,1.686763 0.4375,2.285156 0.235931,0.627531 0.605851,1.196074 1.083985,1.666016 0.46994,0.478138 1.038483,0.848057 1.666015,1.083984 0.598428,0.232576 1.281877,0.391792 2.283203,0.4375 1.003416,0.04579 1.323985,0.05664 3.878907,0.05664 2.554921,0 2.875639,-0.01084 3.878906,-0.05664 1.001363,-0.04571 1.684812,-0.204924 2.283203,-0.4375 1.263608,-0.488287 2.262766,-1.486735 2.751953,-2.75 0.232575,-0.59843 0.391792,-1.283826 0.4375,-2.285156 0.04579,-1.003422 0.05664,-1.32202 0.05664,-3.876953 0,-2.554933 -0.01083,-2.875635 -0.05664,-3.878906 -0.04571,-1.001368 -0.204925,-1.686764 -0.4375,-2.285157 -0.235928,-0.627532 -0.605848,-1.196076 -1.083984,-1.666015 -0.470507,-0.478374 -1.039739,-0.848309 -1.667969,-1.083985 -0.598428,-0.232389 -1.281841,-0.391979 -2.283203,-0.4375 -1.003267,-0.04597 -1.323948,-0.05664 -3.878906,-0.05664 z m 4.503906,3.074218 c 1.00048,0 1.830078,0.827645 1.830078,1.828125 0,1.00048 -0.829598,1.830078 -1.830078,1.830078 -1.00048,10e-7 -1.828125,-0.829598 -1.828125,-1.830078 0,-1.00048 0.827645,-1.828125 1.828125,-1.828125 z m -4.503906,2.142579 c 2.306739,0 4.191406,1.884666 4.191406,4.191406 0,1.838768 -1.137007,3.270195 -2.587891,3.871094 -1.450883,0.600896 -3.266328,0.391874 -4.566406,-0.908204 -1.300078,-1.300078 -1.509101,-3.115523 -0.908203,-4.566406 0.600897,-1.450883 2.032325,-2.587892 3.871094,-2.58789 z m 0.177734,2.570312 c -0.151216,-0.01941 -0.304775,-0.01782 -0.457031,0.0078 -0.304512,0.05127 -0.603329,0.199036 -0.869141,0.464844 -0.531623,0.531617 -0.588903,1.196453 -0.351562,1.769532 0.23734,0.573077 0.748042,1.001944 1.5,1.001953 0.905103,-1e-6 1.624989,-0.717944 1.625,-1.623047 0,-0.751958 -0.430831,-1.264606 -1.003907,-1.501953 -0.143269,-0.05931 -0.292143,-0.09973 -0.443359,-0.119141 z"
       style="fill:#060606;fill-opacity:1;stroke-width:0.03880571"
       inkscape:connector-curvature="0"
       sodipodi:nodetypes="scccccscccccsccccscccccsssssscscsscsccscccs" />
  </g>
  <path
     style="fill:#060606;fill-opacity:1;fill-rule:evenodd;stroke:#000000;stroke-width:0.84535962;stroke-opacity:1"
     d="M 20.063669,5.3842273 A 14.955109,14.955111 0 0 0 4.9800711,20.075354 14.955109,14.955111 0 0 0 19.538406,35.288791 14.955109,14.955111 0 0 0 34.878732,20.864722 l 0.0088,-0.526737 A 14.955109,14.955111 0 0 0 20.063669,5.3842273 Z M 20.04595,7.4321619 A 12.906396,12.906398 0 0 1 32.839644,20.337985 l -0.0088,0.452965 A 12.906396,12.906398 0 0 1 19.592993,33.240855 12.906396,12.906398 0 0 1 7.0280017,20.112238 12.906396,12.906398 0 0 1 20.045958,7.4321619 Z"
     id="path14118"
     inkscape:connector-curvature="0" />
</svg>
